<svg width="108" height="20" viewBox="0 0 108 20" fill="none" xmlns="http://www.w3.org/2000/svg">
<path d="M9.59479 0L12.3131 5.85334L18.72 6.62984L13.9931 11.0239L15.2345 17.3571L9.59479 14.2195L3.95511 17.3571L5.19645 11.0239L0.469603 6.62984L6.87647 5.85334L9.59479 0Z" fill="#FFC633"/>
<path d="M34.2974 -0.00012207L37.0157 5.85322L43.4226 6.62971L38.6958 11.0238L39.9371 17.357L34.2974 14.2194L28.6578 17.357L29.8991 11.0238L25.1722 6.62971L31.5791 5.85322L34.2974 -0.00012207Z" fill="#FFC633"/>
<path d="M59.0001 -0.00012207L61.7184 5.85322L68.1252 6.62971L63.3984 11.0238L64.6397 17.357L59.0001 14.2194L53.3604 17.357L54.6017 11.0238L49.8749 6.62971L56.2817 5.85322L59.0001 -0.00012207Z" fill="#FFC633"/>
<path d="M83.7027 -0.00012207L86.421 5.85322L92.8279 6.62971L88.101 11.0238L89.3424 17.357L83.7027 14.2194L78.063 17.357L79.3044 11.0238L74.5775 6.62971L80.9844 5.85322L83.7027 -0.00012207Z" fill="#FFC633"/>
<path d="M102.296 17.3571L107.936 14.2195V0L105.217 5.85334L98.8105 6.62984L103.537 11.0239L102.296 17.3571Z" fill="#FFC633"/>
</svg>
